<svg width="134.24727" height="105.05726" xmlns="http://www.w3.org/2000/svg" viewBox="0 0 50 50">
 <g>
  <path fill="#00a352" fill-rule="evenodd" stroke="#000000" stroke-width="4" stroke-linecap="round" stroke-linejoin="round" stroke-miterlimit="4" id="path11341" d="m67.125,2l-65.125,44.125l130.25,0l-27.59375,-18.6875l0,-23.46875l-18.46875,0l0,10.9375l-19.0625,-12.90625z"/>
  <path fill="#00a352" fill-rule="evenodd" stroke="#000000" stroke-width="4.089395" stroke-linecap="round" stroke-linejoin="round" stroke-miterlimit="4" id="rect11344" d="m21,52.03125l0,50.96875l91.625,0l0,-50.96875l-91.625,0zm14.125,11.65625l21.53125,0l0,21.53125l-21.53125,0l0,-21.53125zm38.15625,6.4375l22.15625,0l0,32.625l-22.15625,0l0,-32.625z"/>
  <path fill="#000000" fill-rule="evenodd" stroke-width="4" id="path11352" d="m43.75,63.96875l0,8.46875l-9.25,0l0,4l9.25,0l0,9.09375l4,0l0,-9.09375l8.59375,0l0,-4l-8.59375,0l0,-8.46875l-4,0z"/>
 </g>
</svg>